<svg width="348" height="267" viewBox="0 0 348 267" fill="none" xmlns="http://www.w3.org/2000/svg">
<path d="M320.4 30.5L347.9 31.9L317.3 129.1L248.4 133.1C248.4 133.1 200.4 110.5 180.4 109.3L207.2 45.9L320.4 30.5Z" fill="#FF9AEB"/>
<path d="M179.4 103L216.9 14.6999C216.9 14.6999 255.3 11.8999 278.5 32.3999C278.5 32.3999 299 24.2999 332.4 28.4999L331.2 31.0999L342 30.4999L310 124.7C310 124.7 264.8 126.3 250 130.9C250.1 130.9 209.2 105.8 179.4 103Z" fill="#FFF8CB"/>
<path d="M184.7 98.7003C184.7 98.7003 232.2 110.9 248.2 127.5C248.2 127.5 275.3 119 301.8 120.2L331.4 33.1003" stroke="#DDD5AF" stroke-miterlimit="10" stroke-linecap="round"/>
<path d="M334.5 34.5L306.8 122C306.8 122 268.2 121.6 250.6 129.1" stroke="#DDD5AF" stroke-miterlimit="10" stroke-linecap="round"/>
<path d="M216.2 16.3999L186.8 92.9999" stroke="#DDD5AF" stroke-miterlimit="10" stroke-linecap="round"/>
<path d="M278.3 34.5L248.2 123.9" stroke="#DDD5AF" stroke-miterlimit="10" stroke-linecap="round"/>
<path d="M226 81.7996L234.5 84.2996" stroke="#3F2314" stroke-width="0.25" stroke-miterlimit="10"/>
<path d="M222 84.2996L254.9 94.0996" stroke="#3F2314" stroke-width="0.25" stroke-miterlimit="10"/>
<path d="M220.6 87.9995L236.4 94.0995" stroke="#3F2314" stroke-width="0.25" stroke-miterlimit="10"/>
<path d="M218.4 92.8992C221.2 93.9992 227.1 95.2992 227.1 95.2992" stroke="#3F2314" stroke-width="0.25" stroke-miterlimit="10"/>
<path d="M203 140.4L208.6 127.1C208.6 127.1 204.7 116 208.6 113.5C212.5 111 219.9 102.7 221 104.7C221.8 106.2 221.5 111.4 218.8 115.3C217.5 117.2 218.5 119.7 220.6 120.5L228.7 123.5L238.2 133.3C238.2 133.3 222.3 157.2 219.4 158.6C216.6 160 203 140.4 203 140.4Z" fill="#C68059"/>
<path d="M197.1 142.8L205.4 133.1C205.4 133.1 223.4 138.9 229.9 160.1C229.3 168.2 216.5 181.1 216.5 181.1L197.1 142.8Z" fill="#DD226E"/>
<path d="M147.2 34C147.2 34 156.5 36.3 167 47.7C167 47.7 178.9 48.1 173.5 55.6C173.5 55.6 184.5 73.3 176.8 79C169 84.6 165 92.7 176.8 132.2L171.3 134.6C171.3 134.6 158.5 159.1 140.1 155.1C121.7 151.1 132.1 117.7 132.1 117.7L127.7 48.8L147.2 34Z" fill="#FFAC76"/>
<path d="M165.53 54.8045C166.398 54.4476 166.677 53.1231 166.152 51.8461C165.627 50.5691 164.498 49.8231 163.629 50.18C162.761 50.5369 162.483 51.8614 163.007 53.1384C163.532 54.4154 164.662 55.1614 165.53 54.8045Z" fill="#3F2314"/>
<path d="M66.2001 105.1C66.2001 105.1 61.0001 124.5 37.7001 123.5C15.5001 122.5 12.1001 134.7 12.1001 134.7L22.0001 161.3C22.0001 161.3 30.6001 163.5 39.8001 151.1C49.0001 138.7 70.9001 150.6 72.3001 144.3L66.2001 105.1Z" fill="#FF9AEB"/>
<path d="M66.2002 101.7L77.4002 182.7" stroke="#FF9AEB" stroke-miterlimit="10"/>
<path d="M160 42.3999C160.5 41.9999 161.6 42.4999 160.2 44.5999C158.8 46.6999 159.1 49.0999 157.4 49.2999C155.8 49.5999 156.4 45.2999 160 42.3999Z" fill="#3F2314"/>
<path d="M176.5 61.3C176.5 61.3 170.7 64.4 167.2 63.7C163.7 63 167.5 67.6 177.5 63.8C177.6 63.8 176.8 61.9 176.5 61.3Z" fill="white"/>
<path d="M20.9999 166.6C20.9999 166.6 -13.5001 187.4 6.09993 181.1C25.5999 174.7 34.2999 175.1 32.6999 170.4C31.0999 165.7 25.3999 163.9 20.9999 166.6Z" fill="#FFF8CB"/>
<path d="M0.399902 181.1L30.4999 270.6L39.3999 235.1L32.5999 170.4L0.399902 181.1Z" fill="#FFF8CB"/>
<path d="M19.3001 169C19.3001 169 33.4001 167.8 28.3001 171.9C23.3001 176 11.5001 180.4 7.50013 180.3C3.50013 180.2 15.0001 171.7 19.1001 171C23.2001 170.3 20.6001 174.5 17.3001 175.6C13.9001 176.7 12.1001 176.2 14.4001 174.4" stroke="#CEC7A1" stroke-width="0.5" stroke-miterlimit="10" stroke-linecap="round"/>
<path d="M232.5 156.4C232.5 156.4 232.5 156.1 232.4 155.5C231.6 149.8 226.9 117 226.2 111.7C225.4 105.8 227.8 102.6 231.5 94.4996C235.2 86.3996 237.6 82.3996 239.3 88.4996C239.3 88.4996 243.8 86.5996 246.8 90.1996C246.8 90.1996 250.7 87.7996 254.7 92.8996C254.7 92.8996 256.6 90.9996 261.1 96.9996C265.6 102.9 271.4 107.1 267.5 112.5C263.6 117.9 258.4 127.5 258.4 127.5L264.9 169.4L232.5 156.4Z" fill="#FFAC76"/>
<path d="M246.2 113.7C246.2 112.6 241 94.7996 241 94.7996C241 94.7996 240.3 91.8996 240.6 91.9996C242.4 92.4996 256.3 111.1 256.3 111.1L246.2 113.7Z" fill="#B2E000"/>
<path d="M252.089 116.308C254.963 115.756 256.98 113.681 256.595 111.674C256.209 109.667 253.566 108.489 250.691 109.041C247.817 109.594 245.8 111.669 246.185 113.675C246.571 115.682 249.214 116.861 252.089 116.308Z" fill="#CBF716"/>
<path d="M254.7 92.8997L260.4 99.5997" stroke="#BC6C3F" stroke-width="0.5" stroke-miterlimit="10" stroke-linecap="round"/>
<path d="M247 90.5996L253.7 98.8996" stroke="#BC6C3F" stroke-width="0.5" stroke-miterlimit="10" stroke-linecap="round"/>
<path d="M239.5 89.0996C239.5 89.0996 241.7 94.4996 236.4 101.7" stroke="#BC6C3F" stroke-width="0.5" stroke-miterlimit="10" stroke-linecap="round"/>
<path d="M240 91.3997H241.8C241.8 91.3997 242.5 93.5997 243.9 95.2997" stroke="#BC6C3F" stroke-width="0.5" stroke-miterlimit="10" stroke-linecap="round"/>
<path d="M129.5 131.5C129.5 131.5 140.2 139.8 176.8 132.2C176.8 132.2 208.7 132 229.9 174.4C229.9 174.4 228.5 159.8 228.1 156.4C227.7 153 261.5 149.7 266.7 168.2C268.5 185.1 289.7 291.3 248.8 289.2C226 287.8 206.2 266.8 206.2 266.8L210.2 322.4C210.2 322.4 218.7 340 217.5 383.6H60.4C60.4 383.6 56.9 333.5 77.8 309.2C98.7 285 75 189.7 75 189.7C75 189.7 88.6 164.9 102.3 146.8C111.7 134.4 129.5 131.5 129.5 131.5Z" fill="#FF2C79"/>
<path d="M54.3 175.3C58.9 168.3 78.1 159.8 117.6 166.6C157.1 173.4 164.7 198.4 162.1 216.7C159.5 235 153.6 259.5 154.6 268.2C155.5 276.9 161 335.5 137 340.2C113 344.9 36.5 345.4 23.4 323C10.2 300.6 13.8 275.5 29.3 233.8C44.8 192.1 46.5 187.1 54.3 175.3Z" fill="#7B49FF"/>
<path d="M35 240C39 234.6 104.6 236.9 113.1 238.1C121.6 239.3 125.8 248 123.6 263.3C121.4 278.6 118.5 312 52.9 307.3C21.1 304 12 287.6 18.8 272.2C25.6 256.8 35 240 35 240Z" fill="#946DFF"/>
<path d="M30.5 261.4H105.6" stroke="#7B49FF" stroke-miterlimit="10"/>
<path d="M65.7998 189.7H120.9" stroke="#7B49FF" stroke-miterlimit="10"/>
<path d="M153.8 189.7C153.8 189.7 124.9 313 120.9 326.2C118.8 338 141.8 335.6 141.8 335.6" stroke="#422A9B" stroke-miterlimit="10"/>
<path d="M130.3 171.3C130.3 171.3 153.7 142.9 176.8 132.2C181.8 129.4 195.4 135.6 194.9 137.1C194.9 137.1 174.5 145.9 144.6 181C127 174.1 130.3 171.3 130.3 171.3Z" fill="#7B49FF"/>
<path d="M69 177.4C69 177.4 87.7 150.2 108 137C119.6 129.4 129.5 131.5 129.5 131.5C129.5 131.5 92.3 153.3 83.1 174.4C82 177.5 69 177.4 69 177.4Z" fill="#7B49FF"/>
<path d="M153.2 80.5C153.2 80.5 145.4 77.0001 146.8 71.6001C148.2 66.2001 154.6 69.7 154.6 69.7L161.4 74.5C161.4 74.5 157.5 65.3 149.8 61.3C142 57.3 146.9 47.5 148.4 38.9C149.9 30.3 143.1 26.8 143.1 26.8C146.8 29.6 145.6 31.9 145.6 31.9C143.9 29.8 138.5 29.8 138.5 29.8C141.4 30.4 144.1 32.3 144.1 32.3C100.5 29.6 105.3 65 101.9 81.9C97.4998 103.8 86.1998 104.7 85.7998 123.6C85.7998 123.6 92.2998 134.5 109.1 129.1C127.4 123.2 148.7 140.8 166.9 125.3C167 125.3 159.5 86.6 153.2 80.5Z" fill="#3F2314"/>
<path d="M229.9 174.4C229.9 174.4 258.5 233.2 263.7 240.5" stroke="#7C0D3A" stroke-miterlimit="10" stroke-linecap="round"/>
<path d="M171 222.6C171 222.6 184.4 243.1 206.3 266.7" stroke="#7C0D3A" stroke-miterlimit="10" stroke-linecap="round"/>
<path d="M151.5 324C151.8 322.9 188.6 246.3 188.6 246.3L184.1 240.6L148.9 304.5L151.5 324Z" fill="#7B49FF"/>
<path d="M96.6114 24.2482C96.6114 24.2482 110.15 21.1329 113 27.9866C113 27.9866 101.332 -9.04115 61.4293 2.08497C21.5267 13.2111 68.3767 77.2975 96.6114 24.2482Z" fill="#FFDF00"/>
<path d="M113.1 238.1C113.1 238.1 116.6 238.7 118.3 240.1L132.2 221.8L127.6 219.2L113.1 238.1Z" fill="#FFDF00"/>
<path d="M110.8 47.1004C108.9 45.6004 105.6 60.5004 105.1 62.2004C101.2 77.0004 100.1 93.5004 89.8002 105.7C89.0002 106.8 88.3002 108.1 87.7002 109.3C88.3002 108 88.9002 106.7 89.6002 105.5C99.1002 92.9004 100.1 76.6004 104.3 61.9004C104.9 60.3004 108.7 45.6004 110.8 47.1004Z" fill="#3F2314"/>
<path d="M153.2 80.5C157.5 85.3 159.7 91.6 161.7 97.6C163.6 103.7 165 110 165.9 116.3C164.5 110.9 162.5 103.1 160.8 97.9C158.8 91.9 156.9 85.7 153.2 80.5Z" fill="#3F2314"/>
<path d="M145.212 40.4513C150.397 39.6523 154.369 37.5001 154.083 35.6443C153.797 33.7885 149.361 32.9318 144.176 33.7309C138.991 34.53 135.019 36.6822 135.305 38.538C135.591 40.3938 140.026 41.2504 145.212 40.4513Z" fill="#00FFCF"/>
<path d="M133.208 34.2528C138.394 33.4538 142.365 31.3016 142.079 29.4458C141.793 27.59 137.358 26.7333 132.173 27.5324C126.987 28.3315 123.016 30.4837 123.302 32.3395C123.587 34.1953 128.023 35.0519 133.208 34.2528Z" fill="#00FFCF"/>
<path d="M136 32.7L142.1 34.9" stroke="white" stroke-width="0.5" stroke-miterlimit="10" stroke-linecap="round"/>
<path d="M149.1 39.5L152.5 41.2C152.5 41.2 140.6 67.7 139.9 69.5C139.2 71.4 141 75.8 141 75.8" stroke="white" stroke-width="0.5" stroke-miterlimit="10" stroke-linecap="round"/>
<path d="M140.9 55.6995C140.9 55.6995 142.4 68.7995 143.5 71.8995C144.6 75.0995 143.1 58.4995 142.8 55.6995C142.4 52.8995 140.9 55.6995 140.9 55.6995Z" fill="#3F2314"/>
<path d="M144.3 56.0996C144.3 56.0996 143.7 61.9996 143.6 62.8996C143.6 63.7996 144.2 58.8996 144.3 57.9996C144.3 57.0996 144.3 56.0996 144.3 56.0996Z" fill="#3F2314"/>
<path d="M213.3 38.2999C214.2 37.4999 215.3 37.4999 215.3 37.4999L217.8 37.8999L217.9 37.3999L216.4 36.5999L217.3 36.0999L219.7 35.9999C219.7 35.9999 222.4 34.5999 222.9 34.2999C223.4 33.9999 228.2 35.0999 228.2 35.0999C228.2 35.0999 232.7 38.0999 233.6 37.4999C234.4 36.8999 235.2 36.2999 235.2 36.2999L240.7 37.8999L242.2 39.1999L245.1 39.9999L244.5 38.4999L242.2 38.1999L242.4 37.0999L241 36.4999L242.1 35.6999L244.2 35.0999L246.8 37.8999L249.7 36.9999L249.8 37.6999L246.7 38.7999L246.6 39.8999L247.7 40.3999L249.5 39.9999L251.7 39.5999L251.5 38.7999L250.6 38.3999L250.9 37.5999H254.6L252.8 38.9999L253 40.0999L254.7 40.8999L254.8 38.5999L256.7 38.1999L260.2 38.3999L263.9 41.1999L261.8 41.3999L264.2 42.6999L263.4 43.7999L262 43.9999L261.1 45.5999L256.7 43.5999L260.3 41.9999L259.9 41.0999L256.7 40.8999L255.2 41.8999H253.7L254 42.6999L253.3 42.9999L253 43.4999L251.9 43.3999L251.4 42.2999L245.4 44.1999L245.9 46.4999L249.9 48.6999L248 52.7999L250.8 48.7999L252.7 48.5999L253.2 45.6999L255.5 44.8999L258.7 45.5999C258.7 45.5999 255.3 47.5999 256.5 47.4999C257.7 47.3999 260.9 46.9999 260.9 46.9999L260.5 49.2999L262.5 50.5999L261.4 52.2999L259.9 52.5999L259.8 53.1999L262.3 54.6999L261.7 56.2999L258.6 54.2999L259.3 52.3999L259 51.9999L258.7 52.2999L256.5 52.5999L256.3 51.8999L254.8 51.3999L254.3 52.3999L255.8 52.8999L255.1 53.3999L253.9 52.9999L250.9 55.5999L245.4 59.1999L250.2 56.9999L242.9 61.9999L244.1 62.1999L243.1 63.0999L240 62.1999L240.1 65.3999L231.8 69.9999L231.6 74.7999L227.2 74.6999L224.5 67.0999L224.4 65.9999L225.1 65.8999L222.8 60.9999L222.9 57.7999L222.3 57.9999L221.8 61.4999L223.2 63.7999L223 65.5999L220.3 61.1999L220.5 57.5999L219.3 56.5999L219.6 52.7999L223.1 48.4999L224.1 45.3999L225.2 45.0999L224.2 43.8999V41.9999L223.4 40.7999L219.7 39.9999L219 40.7999L214 38.7999L213.3 38.2999Z" fill="#A4BBFF"/>
<path d="M223.1 43.7998L223.8 44.4998L223.4 45.2998L223 45.3998L223.1 43.7998Z" fill="#A4BBFF"/>
<path d="M254.9 54L253.9 54.8L254.2 55.3L254.8 54.6L254.9 54Z" fill="#A4BBFF"/>
<path d="M256.7 54.5L256.3 55.2H254.9L254.6 55.9L256.5 56.1L256.9 55.4L257.5 55.1L257.6 54.8L256.7 54.5Z" fill="#A4BBFF"/>
<path d="M260.8 36.5996L262.9 38.7996L258.8 37.8996L260.8 36.5996Z" fill="#A4BBFF"/>
<path d="M252.3 57.5L250.6 58.4L251.1 61L250.4 61.9L249.6 62.8L246.1 64L247.6 61.9L247.8 60.5L249.9 60.6L249.6 58.4L251 57.5H252.3Z" fill="#A4BBFF"/>
<path d="M236.9 39.2002L239.4 39.4002L238.9 40.1002H237.1L236.9 39.2002Z" fill="#CCDBFF"/>
<path d="M236.4 41.9L239 41.5L238.8 42.8L237.2 42.7L236.4 41.9Z" fill="#CCDBFF"/>
<path d="M239.7 47.2998L240.6 46.7998L242.1 47.4998L241.2 48.6998L240 48.8998L239.7 47.2998Z" fill="#CCDBFF"/>
<path d="M242.4 52.7002L241.3 51.7002L241.7 51.4002L242.8 51.2002L244.9 51.6002L244.7 52.5002L242.4 52.7002Z" fill="#CCDBFF"/>
<path d="M245.4 52L245.1 52.7L246.5 52.4L245.4 52Z" fill="#CCDBFF"/>
<path d="M243.5 52.9994L242.2 52.8994L240.5 54.8994L241 55.2994L243.5 52.9994Z" fill="#CCDBFF"/>
<path d="M243.5 55.5998L245 55.2998L245.1 55.6998L244.5 56.6998L243.4 56.2998L243.5 55.5998Z" fill="#CCDBFF"/>
<path d="M244.6 53.3994L245.9 53.5994L245.8 54.2994L244.5 54.4994L244.6 53.3994Z" fill="#CCDBFF"/>
<path d="M246.3 54.3994L247.7 55.1994L247.4 56.0994L246.4 55.6994L246.3 54.3994Z" fill="#CCDBFF"/>
<path d="M246.9 53.5L247.8 53.8L247.5 54.4L247 54L246.9 53.5Z" fill="#CCDBFF"/>
<path d="M282 40.1C282 40.1 299.9 35 322.9 36.6L314.1 64C314.1 64 290.3 62 272.3 66.6L282 40.1Z" fill="#D0EC66"/>
<path d="M278.3 50.0996L287.8 56.0996C287.8 56.0996 299.9 49.7996 300.6 51.4996C301.3 53.1996 301 56.8996 307.8 56.7996C314.6 56.6996 315.9 58.3996 315.9 58.3996L314.1 63.9996C314.1 63.9996 290.5 62.2996 272.3 66.5996L278.3 50.0996Z" fill="#B2E000"/>
<path d="M271.1 76.5C271.1 76.5 281 75 294.1 77.5" stroke="#3F2314" stroke-width="0.25" stroke-miterlimit="10"/>
<path d="M269.6 81.8004C269.6 81.8004 288.7 79.8004 309.2 87.1004" stroke="#3F2314" stroke-width="0.25" stroke-miterlimit="10"/>
<path d="M267.4 85.6001C267.4 85.6001 285 84.5001 299.9 89.2001" stroke="#3F2314" stroke-width="0.25" stroke-miterlimit="10"/>
<path d="M266.6 89.2001C266.6 89.2001 275.4 88.9001 281 90.6001" stroke="#3F2314" stroke-width="0.25" stroke-miterlimit="10"/>
<path fill-rule="evenodd" clip-rule="evenodd" d="M81.5763 193.097L80.3693 209.683C80.3668 209.718 80.3573 209.752 80.3414 209.783C80.3255 209.815 80.3035 209.842 80.2767 209.865C80.2498 209.888 80.2187 209.905 80.185 209.916C80.1514 209.927 80.1159 209.931 80.0806 209.928L73.2158 209.429L71.7554 206.453C71.7348 206.411 71.7034 206.375 71.6644 206.349C71.6255 206.323 71.5802 206.307 71.5333 206.304C71.4864 206.3 71.4394 206.309 71.397 206.329C71.3547 206.35 71.3184 206.38 71.292 206.419L69.4178 209.152L62.553 208.653C62.482 208.648 62.4159 208.615 62.3693 208.561C62.3227 208.508 62.2994 208.439 62.3045 208.369L63.5115 191.782C63.5166 191.712 63.5497 191.647 63.6035 191.601C63.6574 191.555 63.7275 191.532 63.7985 191.537L67.1382 191.78C67.1854 191.784 67.2308 191.799 67.27 191.826C67.3092 191.852 67.3409 191.888 67.362 191.929L68.5428 194.338L69.5945 196.482C69.6153 196.524 69.6468 196.56 69.686 196.586C69.7251 196.612 69.7704 196.628 69.8174 196.631C69.8645 196.635 69.9115 196.626 69.954 196.606C69.9965 196.586 70.0329 196.555 70.0596 196.516L72.2484 193.323C72.2751 193.285 72.3115 193.254 72.3539 193.234C72.3964 193.214 72.4435 193.205 72.4905 193.209C72.5376 193.212 72.5829 193.227 72.622 193.254C72.6611 193.28 72.6927 193.315 72.7135 193.357L74.4187 196.834C74.4393 196.875 74.4707 196.911 74.5097 196.937C74.5487 196.963 74.5939 196.979 74.6408 196.982C74.6878 196.986 74.7348 196.977 74.7771 196.957C74.8195 196.937 74.8557 196.906 74.8821 196.867L76.2332 194.897L77.7502 192.685C77.7769 192.647 77.8134 192.616 77.8561 192.596C77.8987 192.575 77.946 192.566 77.9932 192.57L81.3278 192.813C81.3632 192.815 81.3977 192.824 81.4294 192.84C81.4611 192.855 81.4894 192.877 81.5127 192.903C81.5359 192.93 81.5537 192.961 81.5649 192.994C81.5761 193.027 81.5806 193.062 81.578 193.097L81.5763 193.097ZM98.0385 202.865L100.807 204.72L100.468 209.371C100.466 209.417 100.45 209.462 100.424 209.501C100.397 209.539 100.361 209.57 100.318 209.59L97.1006 211.131C97.0583 211.152 97.0112 211.161 96.9641 211.157L82.5236 210.106C82.4883 210.104 82.4538 210.094 82.4221 210.079C82.3904 210.063 82.3621 210.042 82.3388 210.015C82.3156 209.989 82.2978 209.958 82.2866 209.925C82.2754 209.892 82.2709 209.857 82.2734 209.822L83.4804 193.235C83.483 193.2 83.4925 193.166 83.5084 193.135C83.5243 193.104 83.5463 193.076 83.5731 193.053C83.5999 193.031 83.6311 193.013 83.6647 193.002C83.6983 192.992 83.7338 192.988 83.7691 192.99L98.2096 194.041C98.2565 194.045 98.3017 194.061 98.3409 194.086L101.301 196.077C101.34 196.103 101.372 196.139 101.393 196.182C101.413 196.224 101.422 196.271 101.418 196.317L101.08 200.966L98.0719 202.405C98.0296 202.425 97.9935 202.457 97.9672 202.495C97.9409 202.534 97.9253 202.579 97.9219 202.625C97.9185 202.672 97.9275 202.718 97.9479 202.76C97.9684 202.802 97.9996 202.838 98.0385 202.865ZM118.332 205.53L116.341 204.192L116.34 204.194C116.302 204.167 116.27 204.131 116.25 204.089C116.229 204.047 116.221 204.001 116.224 203.954C116.227 203.908 116.243 203.863 116.269 203.824C116.296 203.786 116.332 203.755 116.374 203.734L118.538 202.698L121.118 201.465L121.516 196.003C121.521 195.933 121.498 195.864 121.451 195.81C121.405 195.757 121.338 195.724 121.267 195.719L114.556 195.231C114.509 195.227 114.462 195.236 114.419 195.256C114.377 195.276 114.341 195.307 114.314 195.346L112.526 197.952C112.499 197.99 112.463 198.021 112.421 198.041C112.379 198.061 112.332 198.07 112.285 198.067C112.238 198.063 112.192 198.048 112.153 198.022C112.115 197.996 112.083 197.96 112.063 197.918L110.67 195.081C110.65 195.039 110.618 195.003 110.579 194.977C110.54 194.951 110.495 194.935 110.448 194.932L103.736 194.443C103.667 194.438 103.599 194.459 103.546 194.502C103.493 194.545 103.458 194.607 103.45 194.675L102.241 211.289C102.24 211.357 102.265 211.423 102.311 211.473C102.358 211.523 102.422 211.554 102.491 211.559L109.203 212.047C109.25 212.051 109.297 212.042 109.339 212.022C109.381 212.001 109.418 211.97 109.444 211.932L111.233 209.325C111.259 209.287 111.296 209.256 111.338 209.236C111.38 209.216 111.427 209.208 111.474 209.211C111.52 209.214 111.565 209.23 111.604 209.256C111.643 209.281 111.675 209.317 111.696 209.358L112.325 210.64L113.088 212.197C113.108 212.239 113.14 212.275 113.179 212.301C113.218 212.327 113.263 212.343 113.31 212.346L120.022 212.835C120.093 212.84 120.163 212.817 120.217 212.771C120.271 212.725 120.304 212.66 120.309 212.59L120.707 207.125L118.332 205.53Z" fill="#CCB300"/>
</svg>
