<svg width="107" height="33" viewBox="0 0 107 33" fill="none" xmlns="http://www.w3.org/2000/svg">
<path d="M99.4749 0.978516H6.99204C6.75096 0.978516 6.50988 0.978516 6.26667 0.978516C5.73624 0.986228 5.20711 1.03329 4.68365 1.11932C4.16357 1.20741 3.65998 1.37431 3.19024 1.61428C2.71774 1.85585 2.28585 2.16968 1.91017 2.54447C1.53455 2.91944 1.22061 3.35147 0.979984 3.82454C0.7371 4.30096 0.568733 4.81181 0.480757 5.33929C0.392336 5.86173 0.345255 6.39033 0.339949 6.92017C0.327148 7.16552 0.327148 7.40446 0.327148 7.64768V26.3132C0.327148 26.5586 0.327148 26.7975 0.339949 27.0429C0.34544 27.5727 0.39252 28.1013 0.480757 28.6237C0.567971 29.1438 0.734166 29.6474 0.973583 30.1172C1.45754 31.0727 2.23114 31.8507 3.18384 32.3402C3.65378 32.5806 4.15722 32.7489 4.67725 32.8394C5.20077 32.9248 5.72989 32.9711 6.26027 32.9781C6.50348 32.9781 6.74456 32.9781 6.98564 32.9781H100.324C100.565 32.9781 100.81 32.9781 101.052 32.9781C101.581 32.9716 102.108 32.9252 102.63 32.8394C103.155 32.7486 103.663 32.5803 104.139 32.3402C104.613 32.1012 105.045 31.7871 105.419 31.41C105.796 31.0357 106.112 30.6036 106.353 30.13C106.59 29.6596 106.755 29.1561 106.842 28.6365C106.93 28.114 106.979 27.5855 106.989 27.0557C106.989 26.8103 106.989 26.5714 106.989 26.326C106.989 26.0401 106.989 25.7543 106.989 25.4726V8.50959C106.989 8.21944 106.989 7.93356 106.989 7.65621C106.989 7.413 106.989 7.16978 106.989 6.9287C106.979 6.39881 106.93 5.87037 106.842 5.34782C106.754 4.82846 106.59 4.32509 106.353 3.8544C105.87 2.8961 105.097 2.11397 104.145 1.61855C103.67 1.38104 103.161 1.21635 102.637 1.12999C102.115 1.04349 101.587 0.996424 101.058 0.989183C100.817 0.989183 100.572 0.989183 100.33 0.989183L99.4749 0.978516Z" fill="#B6B6B6"/>
<path d="M6.99648 32.2888C6.7554 32.2888 6.52072 32.2888 6.28177 32.2888C5.78718 32.2824 5.29374 32.2396 4.80543 32.1608C4.3509 32.0835 3.91023 31.9398 3.49762 31.7341C2.67786 31.3139 2.01017 30.6477 1.58819 29.8289C1.38052 29.4164 1.23665 28.9747 1.1615 28.519C1.07992 28.0295 1.03641 27.5345 1.03136 27.0384C1.03136 26.8719 1.01855 26.3173 1.01855 26.3173V7.64743C1.01855 7.64743 1.01855 7.10127 1.03136 6.94126C1.03505 6.44442 1.07785 5.94864 1.15936 5.45851C1.23354 5.0012 1.37745 4.55798 1.58605 4.14431C1.79342 3.73726 2.065 3.36626 2.39036 3.04558C2.71531 2.7203 3.08886 2.44751 3.49762 2.23701C3.90932 2.03091 4.34934 1.88711 4.80329 1.81032C5.29286 1.72981 5.7878 1.6863 6.28391 1.68018H6.99648H100.326H101.047C101.539 1.68438 102.03 1.72718 102.515 1.80818C102.974 1.88339 103.418 2.02724 103.834 2.23487C104.655 2.6587 105.323 3.33051 105.741 4.15498C105.948 4.5655 106.092 5.00498 106.168 5.45851C106.25 5.95231 106.295 6.45146 106.304 6.95193C106.304 7.17594 106.304 7.41702 106.304 7.65597C106.304 7.95252 106.304 8.23413 106.304 8.50935V25.4489C106.304 25.737 106.304 26.0164 106.304 26.3023C106.304 26.5882 106.304 26.7951 106.304 27.0384C106.297 27.5289 106.252 28.0182 106.17 28.5019C106.097 28.9609 105.953 29.4057 105.743 29.8204C105.319 30.6361 104.653 31.3003 103.836 31.7213C103.421 31.9292 102.977 32.073 102.52 32.148C102.031 32.2272 101.538 32.27 101.043 32.276C100.813 32.276 100.57 32.276 100.335 32.276H6.99648V32.2888Z" fill="black"/>
<path d="M39.9223 22.5816H36.1695L35.2585 25.0863H33.6094L37.2789 15.729H38.8363L42.5891 25.0863H40.8631L39.9223 22.5816ZM36.6474 21.3016H39.4422L38.4416 18.622C38.3051 18.2529 38.1686 17.8433 38.0363 17.3952C37.9147 17.792 37.7824 18.1953 37.6416 18.6092L36.6474 21.3016Z" fill="white"/>
<path d="M43.2524 19.823C43.2524 19.3067 43.2353 18.7378 43.2012 18.1163H44.6946C44.7507 18.4088 44.7892 18.7045 44.8098 19.0017C45.0711 18.6885 45.3971 18.4356 45.7653 18.2603C46.1336 18.085 46.5354 17.9915 46.9432 17.9861C47.4214 17.9786 47.891 18.1138 48.2919 18.3745C48.6929 18.6352 49.007 19.0096 49.194 19.4497C49.4565 20.0548 49.5811 20.7106 49.5589 21.3698C49.5751 22.0885 49.4292 22.8017 49.1322 23.4563C48.8836 23.9996 48.4779 24.4559 47.9673 24.7662C47.442 25.0698 46.8437 25.224 46.2371 25.2121C45.7597 25.2118 45.2859 25.1311 44.8354 24.9732V27.8597L43.2396 27.9963L43.2524 19.823ZM47.4467 23.3795C47.771 22.9528 47.9353 22.3128 47.9353 21.4594C47.9353 20.6814 47.8002 20.1125 47.5299 19.7526C47.4078 19.5854 47.247 19.4503 47.0612 19.3589C46.8754 19.2675 46.6702 19.2225 46.4632 19.2278C46.1651 19.2238 45.871 19.2973 45.6098 19.4412C45.3324 19.5983 45.08 19.7961 44.861 20.0279V23.7614C45.0378 23.8447 45.2241 23.9064 45.4157 23.9449C45.6218 23.9895 45.832 24.0123 46.0429 24.0131C46.3107 24.0292 46.5785 23.9799 46.823 23.8695C47.0675 23.7591 47.2816 23.591 47.4467 23.3795Z" fill="white"/>
<path d="M50.5297 19.823C50.5297 19.3067 50.5127 18.7378 50.4785 18.1163H51.9719C52.0298 18.4086 52.069 18.7043 52.0893 19.0017C52.7108 18.3246 53.422 17.9861 54.2227 17.9861C54.7009 17.9786 55.1705 18.1138 55.5714 18.3745C55.9723 18.6352 56.2864 19.0096 56.4735 19.4497C56.7359 20.0548 56.8606 20.7106 56.8383 21.3698C56.8579 22.0877 56.7157 22.8008 56.4223 23.4563C56.1732 23.9999 55.7667 24.4563 55.2553 24.7662C54.7301 25.0701 54.1317 25.2243 53.5251 25.2121C53.0477 25.2118 52.5739 25.1311 52.1234 24.9732V27.8597L50.5276 27.9963L50.5297 19.823ZM54.7305 23.3795C55.0548 22.9429 55.2169 22.3028 55.2169 21.4594C55.2169 20.6814 55.0825 20.1125 54.8137 19.7526C54.6916 19.5854 54.5307 19.4503 54.3449 19.3589C54.1591 19.2675 53.9539 19.2225 53.747 19.2278C53.4489 19.2242 53.1549 19.2977 52.8936 19.4412C52.6161 19.5983 52.3637 19.7961 52.1447 20.0279V23.7614C52.3218 23.8441 52.508 23.9057 52.6994 23.9449C52.9055 23.9895 53.1158 24.0123 53.3267 24.0131C53.5944 24.0288 53.862 23.9794 54.1065 23.869C54.351 23.7586 54.5651 23.5907 54.7305 23.3795Z" fill="white"/>
<path d="M59.7714 24.645C59.0897 24.2711 58.5359 23.701 58.182 23.0086C57.7952 22.2263 57.6048 21.3615 57.6273 20.489C57.5996 19.5556 57.8205 18.6315 58.2673 17.8115C58.6708 17.0999 59.2768 16.5244 60.0082 16.1581C60.777 15.7825 61.6233 15.5932 62.4788 15.6055C62.9976 15.6033 63.5147 15.6635 64.0191 15.7848C64.4909 15.8958 64.9488 16.059 65.3845 16.2712L64.9707 17.4979C64.216 17.1172 63.3857 16.9102 62.5407 16.892C61.9442 16.8821 61.3555 17.0292 60.8339 17.3187C60.3389 17.6028 59.9412 18.0296 59.6925 18.5433C59.4065 19.1526 59.2677 19.8205 59.2871 20.4933C59.2765 21.0994 59.3823 21.702 59.5986 22.2683C59.7951 22.7696 60.1406 23.1985 60.5885 23.4972C61.0989 23.8165 61.6938 23.9741 62.2953 23.9495C62.607 23.9487 62.9181 23.9223 63.2255 23.8705C63.5229 23.8233 63.8151 23.7475 64.0981 23.6444V21.7413H61.9348V20.5018H65.6491V24.4466C65.1102 24.6977 64.5459 24.8901 63.9658 25.0205C63.3906 25.153 62.8023 25.2202 62.2121 25.221C61.3626 25.2414 60.5222 25.043 59.7714 24.645Z" fill="white"/>
<path d="M71.3178 25.0862C71.2575 24.7816 71.2204 24.4727 71.2069 24.1625C70.9404 24.4725 70.6147 24.7264 70.2489 24.9092C69.836 25.1183 69.3784 25.2238 68.9155 25.2164C68.5368 25.2211 68.1619 25.1402 67.8189 24.9796C67.4927 24.8265 67.2199 24.579 67.036 24.2691C66.8321 23.9179 66.7309 23.5165 66.7437 23.1107C66.7317 22.8028 66.7916 22.4964 66.9186 22.2157C67.0457 21.935 67.2363 21.6877 67.4755 21.4935C67.9619 21.0896 68.7733 20.8883 69.9097 20.8897C70.333 20.8896 70.7558 20.9195 71.1749 20.9793V20.8428C71.1749 20.2284 71.044 19.7946 70.7823 19.5414C70.4695 19.2722 70.0634 19.1366 69.6516 19.1638C69.2827 19.1683 68.9158 19.2184 68.5593 19.3131C68.206 19.3983 67.8617 19.5169 67.5309 19.6673L67.2792 18.5067C67.641 18.3523 68.0168 18.233 68.4014 18.1504C68.8851 18.041 69.3796 17.9866 69.8756 17.9882C70.4011 17.9739 70.9239 18.0676 71.4117 18.2635C71.8407 18.4532 72.1901 18.7867 72.3995 19.2064C72.6613 19.7685 72.7835 20.3855 72.7558 21.0049V23.7784C72.7558 24.0629 72.7728 24.4995 72.807 25.0884L71.3178 25.0862ZM70.362 23.8062C70.6695 23.6633 70.9458 23.461 71.1749 23.2109V21.9309C70.8207 21.889 70.4647 21.8655 70.1081 21.8605C69.4496 21.8605 68.9938 21.9671 68.7406 22.1805C68.6171 22.2848 68.5189 22.4158 68.4535 22.5637C68.3881 22.7115 68.3571 22.8723 68.363 23.0339C68.3514 23.1735 68.37 23.3139 68.4175 23.4457C68.465 23.5775 68.5403 23.6975 68.6382 23.7976C68.8462 23.973 69.1133 24.0623 69.3849 24.0472C69.7247 24.0421 70.0588 23.9597 70.362 23.8062Z" fill="white"/>
<path d="M73.9883 23.4139V15.1788L75.5756 15.0508V23.1302C75.553 23.3544 75.6063 23.5798 75.727 23.7702C75.788 23.8357 75.8631 23.8865 75.9467 23.9187C76.0302 23.9509 76.12 23.9635 76.2092 23.9558C76.3539 23.9495 76.4973 23.9252 76.6359 23.8833L76.8236 25.0268C76.645 25.0942 76.4598 25.1429 76.2711 25.1719C76.0674 25.2072 75.8612 25.2257 75.6545 25.2273C74.5437 25.2202 73.9883 24.6157 73.9883 23.4139Z" fill="white"/>
<path d="M77.959 23.4139V15.1788L79.5484 15.0508V23.1302C79.5258 23.3544 79.5792 23.5798 79.6999 23.7702C79.7608 23.8357 79.836 23.8865 79.9195 23.9187C80.0031 23.9509 80.0928 23.9635 80.182 23.9558C80.3267 23.9495 80.4701 23.9252 80.6087 23.8833L80.7943 25.0268C80.6164 25.0942 80.4319 25.1429 80.2439 25.1719C80.0395 25.2073 79.8326 25.2258 79.6252 25.2273C78.5158 25.2202 77.9604 24.6157 77.959 23.4139Z" fill="white"/>
<path d="M87.3228 21.8054H82.7636C82.8361 23.2661 83.5316 23.9965 84.8501 23.9965C85.1885 23.9947 85.5256 23.9546 85.855 23.877C86.1914 23.7987 86.5204 23.6916 86.8385 23.557L87.1884 24.6493C86.367 25.0364 85.4679 25.2305 84.56 25.2168C83.9095 25.2356 83.2649 25.0888 82.6868 24.7901C82.1859 24.5194 81.7839 24.0966 81.539 23.5826C81.2682 22.9871 81.1368 22.3377 81.155 21.6838C81.1373 20.9986 81.2767 20.3184 81.5625 19.6954C81.8061 19.1667 82.2002 18.7215 82.6953 18.4154C83.2028 18.1165 83.7833 17.9643 84.3722 17.9759C84.9567 17.9552 85.5331 18.117 86.0214 18.4388C86.4617 18.7445 86.8029 19.1724 87.0028 19.6698C87.2225 20.2116 87.3313 20.792 87.3228 21.3766V21.8054ZM85.7675 20.792C85.7705 20.3391 85.6201 19.8984 85.3408 19.5418C85.2156 19.4016 85.061 19.2907 84.8881 19.2169C84.7151 19.1432 84.5281 19.1084 84.3402 19.1151C84.1511 19.1112 83.9634 19.1472 83.7891 19.2207C83.6149 19.2943 83.4581 19.4037 83.329 19.5418C83.0281 19.8923 82.8439 20.3278 82.802 20.7878L85.7675 20.792Z" fill="white"/>
<path d="M88.5299 19.868C88.5299 19.4861 88.5107 18.9016 88.4766 18.1186H89.97C89.9956 18.3127 90.019 18.5453 90.0446 18.812C90.0702 19.0786 90.0831 19.3005 90.0916 19.4691C90.2522 19.1971 90.4349 18.9388 90.6377 18.6968C90.8139 18.4899 91.0265 18.317 91.265 18.1869C91.5157 18.0515 91.7972 17.9832 92.0821 17.9884C92.2982 17.9832 92.5138 18.0098 92.7221 18.0674L92.5216 19.4499C92.2718 19.3775 92.0094 19.3592 91.7519 19.3959C91.4945 19.4327 91.2478 19.5238 91.0282 19.6632C90.675 19.9257 90.3673 20.2442 90.1172 20.6062V25.0864H88.5299V19.868Z" fill="white"/>
<path d="M93.61 27.9389C93.4155 27.9074 93.2236 27.8611 93.0361 27.8002L93.3263 26.6375C93.4605 26.6736 93.5965 26.7028 93.7338 26.725C93.8873 26.7523 94.0429 26.7665 94.1989 26.7677C94.91 26.7677 95.4391 26.3132 95.7862 25.4044L95.8907 25.1462L93.3199 18.1187H95.0266L96.3323 22.0463C96.4994 22.5515 96.6348 23.0667 96.7377 23.5888C96.8593 23.0853 97.0001 22.5818 97.1644 22.0783L98.4658 18.1187H100.072L97.5121 25.1782C97.3189 25.7469 97.0559 26.2893 96.7291 26.7933C96.48 27.1739 96.1397 27.4863 95.7392 27.7021C95.31 27.9117 94.8364 28.0142 94.3589 28.0008C94.1079 28.0018 93.8574 27.9811 93.61 27.9389Z" fill="white"/>
<path d="M33.6094 6.81982H36.4469L36.3679 7.5068H34.4372V8.83593H36.257V9.47597H34.4372V10.948H36.4703L36.3999 11.6457H33.6094V6.81982Z" fill="white"/>
<path d="M38.4068 9.18369L36.9133 6.81982H37.8606L38.8761 8.55645L39.9428 6.81982H40.8624L39.3689 9.15382L40.984 11.6457H40.0239L38.874 9.74692L37.7027 11.6457H36.7832L38.4068 9.18369Z" fill="white"/>
<path d="M41.5967 6.81982H42.8981C43.5082 6.81982 43.9762 6.94428 44.3019 7.19318C44.4639 7.32065 44.5927 7.48537 44.6774 7.67332C44.7621 7.86127 44.8002 8.06689 44.7883 8.2727C44.7973 8.56667 44.7234 8.85725 44.575 9.11115C44.4301 9.34984 44.2188 9.54112 43.9669 9.66158C43.6871 9.79388 43.3804 9.8596 43.0709 9.85359C42.856 9.85055 42.6418 9.82842 42.4309 9.78745V11.6457H41.5967V6.81982ZM43.6875 8.97461C43.7785 8.8872 43.8495 8.78109 43.8955 8.66359C43.9415 8.5461 43.9615 8.42001 43.9541 8.29404C43.965 8.17331 43.946 8.05176 43.8987 7.94014C43.8514 7.82851 43.7774 7.73024 43.6832 7.654C43.4431 7.50777 43.1637 7.43923 42.8831 7.45773H42.4309V9.16449C42.5894 9.19305 42.7499 9.20945 42.9109 9.21355C43.1906 9.23455 43.4679 9.14921 43.6875 8.97461Z" fill="white"/>
<path d="M45.6113 6.81982H46.4434V10.9331H48.4403L48.3699 11.6457H45.6113V6.81982Z" fill="white"/>
<path d="M49.7081 11.4088C49.3585 11.2121 49.076 10.9148 48.8974 10.5555C48.7034 10.1572 48.6075 9.71827 48.618 9.27539C48.6077 8.81257 48.7103 8.35422 48.9166 7.93985C49.1058 7.56633 49.4032 7.25852 49.77 7.0566C50.1806 6.84154 50.6402 6.73713 51.1034 6.75365C51.5414 6.74189 51.9748 6.84564 52.36 7.05447C52.7076 7.25191 52.9878 7.54922 53.1643 7.90784C53.3546 8.30194 53.4489 8.73546 53.4396 9.17298C53.4511 9.64095 53.3478 10.1046 53.1387 10.5235C52.9477 10.8957 52.6508 11.203 52.2854 11.4067C51.8819 11.6213 51.4301 11.7286 50.9733 11.7182C50.5316 11.7294 50.0949 11.6226 49.7081 11.4088ZM51.8672 10.8179C52.1024 10.662 52.2853 10.439 52.392 10.1778C52.5117 9.87886 52.5705 9.55898 52.5648 9.23698C52.5702 8.92089 52.5181 8.60645 52.4112 8.30893C52.3155 8.05124 52.1445 7.82826 51.9205 7.6689C51.6608 7.50994 51.3621 7.42582 51.0576 7.42582C50.753 7.42582 50.4544 7.50994 50.1946 7.6689C49.9587 7.83253 49.775 8.06067 49.6655 8.326C49.5441 8.61265 49.4838 8.92146 49.4884 9.23272C49.4833 9.55339 49.5398 9.87207 49.6548 10.1714C49.757 10.4453 49.9439 10.6795 50.1883 10.8399C50.4327 11.0002 50.7219 11.0785 51.0138 11.0632C51.3167 11.0707 51.6145 10.985 51.8672 10.8179Z" fill="white"/>
<path d="M54.3672 6.81995H55.8777C56.3202 6.78862 56.7606 6.90492 57.13 7.15063C57.2717 7.2619 57.3845 7.40572 57.4588 7.56988C57.5331 7.73405 57.5667 7.91371 57.5567 8.09362C57.5617 8.32755 57.5089 8.55911 57.4031 8.76779C57.3105 8.95076 57.1812 9.11272 57.0233 9.24355C56.8822 9.35753 56.7237 9.44827 56.554 9.51236L58.0474 11.6458H57.0767L55.8201 9.72571H55.2078V11.6458H54.3672V6.81995ZM55.675 9.10274C55.8603 9.10678 56.0439 9.06656 56.2105 8.9854C56.3606 8.91334 56.4871 8.80014 56.5753 8.65898C56.6634 8.50831 56.7084 8.33637 56.7055 8.16189C56.714 8.06118 56.6975 7.95992 56.6573 7.8672C56.6171 7.77448 56.5544 7.6932 56.475 7.63066C56.275 7.50544 56.0406 7.44646 55.8051 7.46212H55.2014V9.11127L55.675 9.10274Z" fill="white"/>
<path d="M58.6982 6.81982H61.5421L61.4611 7.5068H59.541V8.83593H61.3437V9.47597H59.5239V10.948H61.5571L61.4952 11.6457H58.6982V6.81982Z" fill="white"/>
<path d="M64.6357 6.81982H65.4678V11.6457H64.6357V6.81982Z" fill="white"/>
<path d="M67.6711 7.51533H66.1777L66.2503 6.81982H70.0051L69.9283 7.51533H68.5053V11.6457H67.6711V7.51533Z" fill="white"/>
<path d="M73.6223 11.4088C73.2732 11.2119 72.9915 10.9145 72.8137 10.5554C72.6179 10.1577 72.5212 9.71848 72.5321 9.27531C72.5219 8.8125 72.6244 8.35415 72.8308 7.93977C73.0205 7.56664 73.3177 7.25897 73.6841 7.05653C74.0916 6.84041 74.5479 6.73312 75.009 6.74504C75.4521 6.73311 75.8904 6.83991 76.2784 7.05439C76.6264 7.25121 76.9068 7.54869 77.0827 7.90777C77.2737 8.30168 77.3688 8.73522 77.3601 9.17291C77.3719 9.64115 77.2678 10.1051 77.0571 10.5234C76.8667 10.8961 76.5696 11.2036 76.2037 11.4066C75.8005 11.6218 75.3486 11.7291 74.8917 11.7181C74.4485 11.73 74.0102 11.6232 73.6223 11.4088ZM75.7834 10.8178C76.0175 10.6612 76.1995 10.4384 76.3061 10.1778C76.4258 9.87879 76.4846 9.55891 76.4789 9.23691C76.4843 8.92082 76.4323 8.60637 76.3253 8.30886C76.2304 8.05132 76.0602 7.82831 75.8368 7.66883C75.5767 7.50968 75.2777 7.42546 74.9727 7.42546C74.6678 7.42546 74.3688 7.50968 74.1087 7.66883C73.8728 7.83246 73.6891 8.06059 73.5796 8.32593C73.4592 8.61289 73.3989 8.92148 73.4025 9.23264C73.3974 9.55332 73.4539 9.87199 73.5689 10.1714C73.6707 10.4345 73.8481 10.6617 74.0788 10.8242C74.3314 10.9909 74.6298 11.0745 74.9322 11.0631C75.2342 11.0693 75.531 10.9838 75.7834 10.8178Z" fill="white"/>
<path d="M78.2832 6.81982H79.239L81.6263 10.5598C81.605 10.2035 81.5964 9.87706 81.5964 9.57624V6.81982H82.3688V11.6457H81.4428L79.0192 7.84601C79.0427 8.2727 79.0555 8.65886 79.0555 8.99381V11.6457H78.2832V6.81982Z" fill="white"/>
<path fill-rule="evenodd" clip-rule="evenodd" d="M21.8751 6.8457H13.0191C8.84396 6.8457 7.31641 8.37325 7.31641 12.5484V21.4108C7.31641 25.5859 8.84396 27.1135 13.0191 27.1135H21.8751C26.0502 27.1135 27.5799 25.5859 27.5799 21.4108V12.5484C27.5842 8.37325 26.0566 6.8457 21.8751 6.8457Z" fill="#C8102E"/>
<path d="M11.3297 16.9795H11.8673V19.6314H11.3297V18.554H10.1158V19.6314H9.57812V16.9795H10.1158V18.0462H11.3297V16.9795ZM14.3592 18.4964C14.3592 18.9231 14.1458 19.1577 13.7576 19.1577C13.3693 19.1577 13.1517 18.9231 13.1517 18.4729V16.9795H12.614V18.4942C12.614 19.2388 13.0279 19.6655 13.749 19.6655C14.4701 19.6655 14.8968 19.2388 14.8968 18.4708V16.9795H14.3592V18.4964ZM20.5718 18.8015L19.9702 16.9795H19.5285L18.9312 18.8036L18.3445 16.9795H17.7727L18.6965 19.6314H19.1424L19.7419 17.8905L20.3435 19.6314H20.7937L21.7175 16.9795H21.1585L20.5718 18.8015ZM22.6796 18.4878H23.6589V18.0078H22.6796V17.4659H24.1005V16.9795H22.1505V19.625H24.1517V19.1471H22.6796V18.4878ZM24.7917 19.625H25.323V16.9795H24.7917V19.625ZM15.9593 19.0767L15.7182 19.6271H15.1699L16.3284 16.9795H16.802L17.9647 19.6271H17.41L17.1817 19.0788L15.9593 19.0767ZM16.1598 18.5988H16.9684L16.563 17.6515L16.1598 18.5988Z" fill="white"/>
<path d="M17.4501 13.6064C16.5557 13.6058 15.6981 13.2503 15.0657 12.6178C14.4333 11.9854 14.0777 11.1278 14.0771 10.2334H14.5529C14.5529 11.0018 14.8582 11.7387 15.4015 12.282C15.9448 12.8254 16.6817 13.1306 17.4501 13.1306C18.2185 13.1306 18.9554 12.8254 19.4988 12.282C20.0421 11.7387 20.3474 11.0018 20.3474 10.2334H20.8231C20.8226 11.1278 20.467 11.9854 19.8346 12.6178C19.2021 13.2503 18.3445 13.6058 17.4501 13.6064Z" fill="white"/>
</svg>
