<svg width="80" height="26" viewBox="0 0 80 26" fill="none" xmlns="http://www.w3.org/2000/svg">
  <rect width="80" height="26" rx="4" fill="white"/>
  <path d="M15 8H18L22 18H19L18.2 15.5H14.8L14 18H11L15 8ZM15.5 13H17.5L16.5 10.5L15.5 13Z" fill="#00A651"/>
  <path d="M25 8H28L32 18H29L31 13L29.5 8.5L27 18H24L25 8Z" fill="#00A651"/>
  <path d="M35 8H42V10.5H38V11.5H41.5V14H38V15.5H42V18H35V8Z" fill="#00A651"/>
  <path d="M45 8H52V10.5H48V11.5H51.5V14H48V15.5H52V18H45V8Z" fill="#00A651"/>
  <rect x="10" y="6" width="60" height="2" fill="#00A651"/>
  <rect x="10" y="18" width="60" height="2" fill="#00A651"/>
</svg>