<svg width="80" height="26" viewBox="0 0 80 26" fill="none" xmlns="http://www.w3.org/2000/svg">
  <rect width="80" height="26" rx="4" fill="white"/>
  <path d="M32.5 6.5L29.8 19.5H26.7L25.1 10.2C24.9 9.3 24.8 9 24.3 8.6C23.5 8 22.2 7.4 21 7.1L21.1 6.5H26.8C27.6 6.5 28.3 7.1 28.4 8L29.4 14.2L32.1 6.5H35.3L32.5 6.5ZM44.8 16.3C44.8 13.1 40.8 12.9 40.8 11.4C40.8 10.9 41.3 10.4 42.4 10.4C43.3 10.4 44.1 10.6 44.8 11L45.3 8.2C44.6 7.9 43.6 7.6 42.4 7.6C39.4 7.6 37.4 9.2 37.4 11.5C37.4 13.2 38.8 14.2 39.8 14.8C40.9 15.4 41.3 15.8 41.3 16.4C41.3 17.3 40.2 17.7 39.2 17.7C37.9 17.7 36.6 17.3 35.6 16.8L35.1 19.6C36.2 20.1 37.6 20.3 39 20.3C42.3 20.3 44.8 18.7 44.8 16.3ZM54.2 19.5H57L54.8 6.5H52.1C51.4 6.5 50.8 6.9 50.5 7.5L45.8 19.5H49L49.8 17.3H53.7L54.2 19.5ZM50.7 14.5L52.4 9.8L53.2 14.5H50.7ZM19.5 6.5L16.5 19.5H13.4L11.5 8.8C11.3 7.9 11.1 7.6 10.4 7.2C9.4 6.6 8 6.1 6.8 5.8L6.9 6.5H12.2C12.9 6.5 13.5 7 13.6 7.8L14.5 13.6L17 6.5H19.5Z" fill="#1A1F71"/>
</svg>